<mxfile host="app.diagrams.net" modified="2023-09-19T16:15:02.820Z" agent="Mozilla/5.0 (Windows NT 10.0; Win64; x64) AppleWebKit/537.36 (KHTML, like Gecko) Chrome/116.0.0.0 Safari/537.36 OPR/102.0.0.0" etag="ZAldgMzZlrkkpd9CDJWu" version="21.7.5" type="github">
  <diagram name="Page-1" id="9f46799a-70d6-7492-0946-bef42562c5a5">
    <mxGraphModel dx="1402" dy="771" grid="1" gridSize="10" guides="1" tooltips="1" connect="1" arrows="1" fold="1" page="1" pageScale="1" pageWidth="1100" pageHeight="850" background="none" math="0" shadow="0">
      <root>
        <mxCell id="0" />
        <mxCell id="1" parent="0" />
        <mxCell id="78961159f06e98e8-17" value="Login activity" style="swimlane;html=1;fontStyle=1;align=center;verticalAlign=top;childLayout=stackLayout;horizontal=1;startSize=26;horizontalStack=0;resizeParent=1;resizeLast=0;collapsible=1;marginBottom=0;swimlaneFillColor=#ffffff;rounded=1;shadow=0;comic=0;labelBackgroundColor=none;strokeWidth=1;fillColor=none;fontFamily=Verdana;fontSize=12" parent="1" vertex="1">
          <mxGeometry x="30" y="70" width="210" height="130" as="geometry" />
        </mxCell>
        <mxCell id="78961159f06e98e8-21" value="+ verification &amp;amp; login(number + pass)" style="text;html=1;strokeColor=none;fillColor=none;align=left;verticalAlign=top;spacingLeft=4;spacingRight=4;whiteSpace=wrap;overflow=hidden;rotatable=0;points=[[0,0.5],[1,0.5]];portConstraint=eastwest;rounded=1;" parent="78961159f06e98e8-17" vertex="1">
          <mxGeometry y="26" width="210" height="26" as="geometry" />
        </mxCell>
        <mxCell id="78961159f06e98e8-23" value="+ change pass" style="text;html=1;strokeColor=none;fillColor=none;align=left;verticalAlign=top;spacingLeft=4;spacingRight=4;whiteSpace=wrap;overflow=hidden;rotatable=0;points=[[0,0.5],[1,0.5]];portConstraint=eastwest;rounded=1;" parent="78961159f06e98e8-17" vertex="1">
          <mxGeometry y="52" width="210" height="26" as="geometry" />
        </mxCell>
        <mxCell id="orXaqV5CBYKXUnDwEfgx-1" value="+ to regActivity" style="text;html=1;strokeColor=none;fillColor=none;align=left;verticalAlign=top;spacingLeft=4;spacingRight=4;whiteSpace=wrap;overflow=hidden;rotatable=0;points=[[0,0.5],[1,0.5]];portConstraint=eastwest;rounded=1;" vertex="1" parent="78961159f06e98e8-17">
          <mxGeometry y="78" width="210" height="26" as="geometry" />
        </mxCell>
        <mxCell id="78961159f06e98e8-25" value="+ to mainActivity" style="text;html=1;strokeColor=none;fillColor=none;align=left;verticalAlign=top;spacingLeft=4;spacingRight=4;whiteSpace=wrap;overflow=hidden;rotatable=0;points=[[0,0.5],[1,0.5]];portConstraint=eastwest;rounded=1;" parent="78961159f06e98e8-17" vertex="1">
          <mxGeometry y="104" width="210" height="26" as="geometry" />
        </mxCell>
        <mxCell id="a9FXiN3-2ey64VgriO8G-4" value="Registration activity" style="swimlane;html=1;fontStyle=1;align=center;verticalAlign=top;childLayout=stackLayout;horizontal=1;startSize=26;horizontalStack=0;resizeParent=1;resizeLast=0;collapsible=1;marginBottom=0;swimlaneFillColor=#ffffff;rounded=1;shadow=0;comic=0;labelBackgroundColor=none;strokeWidth=1;fillColor=none;fontFamily=Verdana;fontSize=12" parent="1" vertex="1">
          <mxGeometry x="330" y="20" width="200" height="208" as="geometry" />
        </mxCell>
        <mxCell id="a9FXiN3-2ey64VgriO8G-7" value="+ first-second name" style="text;html=1;strokeColor=none;fillColor=none;align=left;verticalAlign=top;spacingLeft=4;spacingRight=4;whiteSpace=wrap;overflow=hidden;rotatable=0;points=[[0,0.5],[1,0.5]];portConstraint=eastwest;rounded=1;" parent="a9FXiN3-2ey64VgriO8G-4" vertex="1">
          <mxGeometry y="26" width="200" height="26" as="geometry" />
        </mxCell>
        <mxCell id="a9FXiN3-2ey64VgriO8G-6" value="+ date of bth" style="text;html=1;strokeColor=none;fillColor=none;align=left;verticalAlign=top;spacingLeft=4;spacingRight=4;whiteSpace=wrap;overflow=hidden;rotatable=0;points=[[0,0.5],[1,0.5]];portConstraint=eastwest;rounded=1;" parent="a9FXiN3-2ey64VgriO8G-4" vertex="1">
          <mxGeometry y="52" width="200" height="26" as="geometry" />
        </mxCell>
        <mxCell id="a9FXiN3-2ey64VgriO8G-5" value="+ number" style="text;html=1;strokeColor=none;fillColor=none;align=left;verticalAlign=top;spacingLeft=4;spacingRight=4;whiteSpace=wrap;overflow=hidden;rotatable=0;points=[[0,0.5],[1,0.5]];portConstraint=eastwest;rounded=1;" parent="a9FXiN3-2ey64VgriO8G-4" vertex="1">
          <mxGeometry y="78" width="200" height="26" as="geometry" />
        </mxCell>
        <mxCell id="orXaqV5CBYKXUnDwEfgx-3" value="+ password&lt;br&gt;" style="text;html=1;strokeColor=none;fillColor=none;align=left;verticalAlign=top;spacingLeft=4;spacingRight=4;whiteSpace=wrap;overflow=hidden;rotatable=0;points=[[0,0.5],[1,0.5]];portConstraint=eastwest;rounded=1;" vertex="1" parent="a9FXiN3-2ey64VgriO8G-4">
          <mxGeometry y="104" width="200" height="26" as="geometry" />
        </mxCell>
        <mxCell id="orXaqV5CBYKXUnDwEfgx-4" value="+ re-password" style="text;html=1;strokeColor=none;fillColor=none;align=left;verticalAlign=top;spacingLeft=4;spacingRight=4;whiteSpace=wrap;overflow=hidden;rotatable=0;points=[[0,0.5],[1,0.5]];portConstraint=eastwest;rounded=1;" vertex="1" parent="a9FXiN3-2ey64VgriO8G-4">
          <mxGeometry y="130" width="200" height="26" as="geometry" />
        </mxCell>
        <mxCell id="orXaqV5CBYKXUnDwEfgx-5" value="+ to logActivity" style="text;html=1;strokeColor=none;fillColor=none;align=left;verticalAlign=top;spacingLeft=4;spacingRight=4;whiteSpace=wrap;overflow=hidden;rotatable=0;points=[[0,0.5],[1,0.5]];portConstraint=eastwest;rounded=1;" vertex="1" parent="a9FXiN3-2ey64VgriO8G-4">
          <mxGeometry y="156" width="200" height="26" as="geometry" />
        </mxCell>
        <mxCell id="orXaqV5CBYKXUnDwEfgx-16" value="+ to mainActivity(after verification)" style="text;html=1;strokeColor=none;fillColor=none;align=left;verticalAlign=top;spacingLeft=4;spacingRight=4;whiteSpace=wrap;overflow=hidden;rotatable=0;points=[[0,0.5],[1,0.5]];portConstraint=eastwest;rounded=1;" vertex="1" parent="a9FXiN3-2ey64VgriO8G-4">
          <mxGeometry y="182" width="200" height="26" as="geometry" />
        </mxCell>
        <mxCell id="orXaqV5CBYKXUnDwEfgx-6" style="edgeStyle=orthogonalEdgeStyle;rounded=1;orthogonalLoop=1;jettySize=auto;html=1;exitX=1;exitY=0.5;exitDx=0;exitDy=0;entryX=-0.006;entryY=0.126;entryDx=0;entryDy=0;entryPerimeter=0;" edge="1" parent="1" source="orXaqV5CBYKXUnDwEfgx-1" target="a9FXiN3-2ey64VgriO8G-4">
          <mxGeometry relative="1" as="geometry">
            <Array as="points">
              <mxPoint x="270" y="161" />
              <mxPoint x="270" y="46" />
              <mxPoint x="329" y="46" />
            </Array>
          </mxGeometry>
        </mxCell>
        <mxCell id="orXaqV5CBYKXUnDwEfgx-9" style="edgeStyle=orthogonalEdgeStyle;rounded=1;orthogonalLoop=1;jettySize=auto;html=1;exitX=0;exitY=0.5;exitDx=0;exitDy=0;entryX=1.001;entryY=0.045;entryDx=0;entryDy=0;entryPerimeter=0;" edge="1" parent="1" source="orXaqV5CBYKXUnDwEfgx-5" target="78961159f06e98e8-21">
          <mxGeometry relative="1" as="geometry">
            <Array as="points">
              <mxPoint x="330" y="190" />
              <mxPoint x="290" y="190" />
              <mxPoint x="290" y="97" />
            </Array>
          </mxGeometry>
        </mxCell>
        <mxCell id="orXaqV5CBYKXUnDwEfgx-10" value="Main activity" style="swimlane;html=1;fontStyle=1;align=center;verticalAlign=top;childLayout=stackLayout;horizontal=1;startSize=26;horizontalStack=0;resizeParent=1;resizeLast=0;collapsible=1;marginBottom=0;swimlaneFillColor=#ffffff;rounded=1;shadow=0;comic=0;labelBackgroundColor=none;strokeWidth=1;fillColor=none;fontFamily=Verdana;fontSize=12" vertex="1" parent="1">
          <mxGeometry x="50" y="340" width="210" height="130" as="geometry" />
        </mxCell>
        <mxCell id="orXaqV5CBYKXUnDwEfgx-12" value="+ to abonement(visual verification)" style="text;html=1;strokeColor=none;fillColor=none;align=left;verticalAlign=top;spacingLeft=4;spacingRight=4;whiteSpace=wrap;overflow=hidden;rotatable=0;points=[[0,0.5],[1,0.5]];portConstraint=eastwest;rounded=1;" vertex="1" parent="orXaqV5CBYKXUnDwEfgx-10">
          <mxGeometry y="26" width="210" height="26" as="geometry" />
        </mxCell>
        <mxCell id="orXaqV5CBYKXUnDwEfgx-11" value="+ real-time data of clients(in the gym)" style="text;html=1;strokeColor=none;fillColor=none;align=left;verticalAlign=top;spacingLeft=4;spacingRight=4;whiteSpace=wrap;overflow=hidden;rotatable=0;points=[[0,0.5],[1,0.5]];portConstraint=eastwest;rounded=1;" vertex="1" parent="orXaqV5CBYKXUnDwEfgx-10">
          <mxGeometry y="52" width="210" height="26" as="geometry" />
        </mxCell>
        <mxCell id="orXaqV5CBYKXUnDwEfgx-19" value="+ persenal statistics(tr per month)" style="text;html=1;strokeColor=none;fillColor=none;align=left;verticalAlign=top;spacingLeft=4;spacingRight=4;whiteSpace=wrap;overflow=hidden;rotatable=0;points=[[0,0.5],[1,0.5]];portConstraint=eastwest;rounded=1;" vertex="1" parent="orXaqV5CBYKXUnDwEfgx-10">
          <mxGeometry y="78" width="210" height="26" as="geometry" />
        </mxCell>
        <mxCell id="orXaqV5CBYKXUnDwEfgx-20" value="+ info about group tr" style="text;html=1;strokeColor=none;fillColor=none;align=left;verticalAlign=top;spacingLeft=4;spacingRight=4;whiteSpace=wrap;overflow=hidden;rotatable=0;points=[[0,0.5],[1,0.5]];portConstraint=eastwest;rounded=1;" vertex="1" parent="orXaqV5CBYKXUnDwEfgx-10">
          <mxGeometry y="104" width="210" height="26" as="geometry" />
        </mxCell>
        <mxCell id="orXaqV5CBYKXUnDwEfgx-17" style="edgeStyle=orthogonalEdgeStyle;rounded=1;orthogonalLoop=1;jettySize=auto;html=1;exitX=0;exitY=0.5;exitDx=0;exitDy=0;entryX=0.75;entryY=0;entryDx=0;entryDy=0;" edge="1" parent="1" source="orXaqV5CBYKXUnDwEfgx-16" target="orXaqV5CBYKXUnDwEfgx-10">
          <mxGeometry relative="1" as="geometry" />
        </mxCell>
        <mxCell id="orXaqV5CBYKXUnDwEfgx-18" style="edgeStyle=orthogonalEdgeStyle;rounded=1;orthogonalLoop=1;jettySize=auto;html=1;exitX=0;exitY=0.5;exitDx=0;exitDy=0;entryX=0.25;entryY=0;entryDx=0;entryDy=0;" edge="1" parent="1" source="78961159f06e98e8-25" target="orXaqV5CBYKXUnDwEfgx-10">
          <mxGeometry relative="1" as="geometry" />
        </mxCell>
        <mxCell id="orXaqV5CBYKXUnDwEfgx-21" value="Service activity" style="swimlane;html=1;fontStyle=1;align=center;verticalAlign=top;childLayout=stackLayout;horizontal=1;startSize=26;horizontalStack=0;resizeParent=1;resizeLast=0;collapsible=1;marginBottom=0;swimlaneFillColor=#ffffff;rounded=1;shadow=0;comic=0;labelBackgroundColor=none;strokeWidth=1;fillColor=none;fontFamily=Verdana;fontSize=12" vertex="1" parent="1">
          <mxGeometry x="310" y="340" width="210" height="130" as="geometry" />
        </mxCell>
        <mxCell id="orXaqV5CBYKXUnDwEfgx-22" value="+ price &amp;amp; buy option(aboniment)" style="text;html=1;strokeColor=none;fillColor=none;align=left;verticalAlign=top;spacingLeft=4;spacingRight=4;whiteSpace=wrap;overflow=hidden;rotatable=0;points=[[0,0.5],[1,0.5]];portConstraint=eastwest;rounded=1;" vertex="1" parent="orXaqV5CBYKXUnDwEfgx-21">
          <mxGeometry y="26" width="210" height="26" as="geometry" />
        </mxCell>
        <mxCell id="orXaqV5CBYKXUnDwEfgx-23" value="+ bucking mentor option" style="text;html=1;strokeColor=none;fillColor=none;align=left;verticalAlign=top;spacingLeft=4;spacingRight=4;whiteSpace=wrap;overflow=hidden;rotatable=0;points=[[0,0.5],[1,0.5]];portConstraint=eastwest;rounded=1;" vertex="1" parent="orXaqV5CBYKXUnDwEfgx-21">
          <mxGeometry y="52" width="210" height="26" as="geometry" />
        </mxCell>
        <mxCell id="orXaqV5CBYKXUnDwEfgx-24" value="+ freeze abonemet option" style="text;html=1;strokeColor=none;fillColor=none;align=left;verticalAlign=top;spacingLeft=4;spacingRight=4;whiteSpace=wrap;overflow=hidden;rotatable=0;points=[[0,0.5],[1,0.5]];portConstraint=eastwest;rounded=1;" vertex="1" parent="orXaqV5CBYKXUnDwEfgx-21">
          <mxGeometry y="78" width="210" height="26" as="geometry" />
        </mxCell>
        <mxCell id="orXaqV5CBYKXUnDwEfgx-25" value="+&amp;nbsp;re-issue aboniment (to someone)" style="text;html=1;strokeColor=none;fillColor=none;align=left;verticalAlign=top;spacingLeft=4;spacingRight=4;whiteSpace=wrap;overflow=hidden;rotatable=0;points=[[0,0.5],[1,0.5]];portConstraint=eastwest;rounded=1;" vertex="1" parent="orXaqV5CBYKXUnDwEfgx-21">
          <mxGeometry y="104" width="210" height="26" as="geometry" />
        </mxCell>
        <mxCell id="orXaqV5CBYKXUnDwEfgx-28" style="edgeStyle=orthogonalEdgeStyle;rounded=1;orthogonalLoop=1;jettySize=auto;html=1;exitX=0;exitY=0.5;exitDx=0;exitDy=0;entryX=0.463;entryY=1.027;entryDx=0;entryDy=0;entryPerimeter=0;startArrow=classic;startFill=1;" edge="1" parent="1" source="orXaqV5CBYKXUnDwEfgx-26" target="orXaqV5CBYKXUnDwEfgx-20">
          <mxGeometry relative="1" as="geometry" />
        </mxCell>
        <mxCell id="orXaqV5CBYKXUnDwEfgx-29" style="edgeStyle=orthogonalEdgeStyle;rounded=1;orthogonalLoop=1;jettySize=auto;html=1;exitX=0.5;exitY=0;exitDx=0;exitDy=0;entryX=0.506;entryY=0.984;entryDx=0;entryDy=0;entryPerimeter=0;startArrow=classic;startFill=1;" edge="1" parent="1" source="orXaqV5CBYKXUnDwEfgx-26" target="orXaqV5CBYKXUnDwEfgx-25">
          <mxGeometry relative="1" as="geometry" />
        </mxCell>
        <mxCell id="orXaqV5CBYKXUnDwEfgx-35" style="edgeStyle=orthogonalEdgeStyle;rounded=1;orthogonalLoop=1;jettySize=auto;html=1;exitX=1;exitY=0.5;exitDx=0;exitDy=0;entryX=0.497;entryY=0.962;entryDx=0;entryDy=0;entryPerimeter=0;startArrow=classic;startFill=1;" edge="1" parent="1" source="orXaqV5CBYKXUnDwEfgx-26" target="orXaqV5CBYKXUnDwEfgx-34">
          <mxGeometry relative="1" as="geometry" />
        </mxCell>
        <mxCell id="orXaqV5CBYKXUnDwEfgx-26" value="&lt;font style=&quot;font-size: 21px;&quot;&gt;Navigation Bar&lt;/font&gt;" style="rounded=1;whiteSpace=wrap;html=1;" vertex="1" parent="1">
          <mxGeometry x="270" y="570" width="120" height="60" as="geometry" />
        </mxCell>
        <mxCell id="orXaqV5CBYKXUnDwEfgx-30" value="Setings &amp;amp; Personal data activity" style="swimlane;html=1;fontStyle=1;align=center;verticalAlign=top;childLayout=stackLayout;horizontal=1;startSize=26;horizontalStack=0;resizeParent=1;resizeLast=0;collapsible=1;marginBottom=0;swimlaneFillColor=#ffffff;rounded=1;shadow=0;comic=0;labelBackgroundColor=none;strokeWidth=1;fillColor=none;fontFamily=Verdana;fontSize=12" vertex="1" parent="1">
          <mxGeometry x="560" y="340" width="260" height="130" as="geometry" />
        </mxCell>
        <mxCell id="orXaqV5CBYKXUnDwEfgx-31" value="+ change number option" style="text;html=1;strokeColor=none;fillColor=none;align=left;verticalAlign=top;spacingLeft=4;spacingRight=4;whiteSpace=wrap;overflow=hidden;rotatable=0;points=[[0,0.5],[1,0.5]];portConstraint=eastwest;rounded=1;" vertex="1" parent="orXaqV5CBYKXUnDwEfgx-30">
          <mxGeometry y="26" width="260" height="26" as="geometry" />
        </mxCell>
        <mxCell id="orXaqV5CBYKXUnDwEfgx-32" value="+ upload photo option" style="text;html=1;strokeColor=none;fillColor=none;align=left;verticalAlign=top;spacingLeft=4;spacingRight=4;whiteSpace=wrap;overflow=hidden;rotatable=0;points=[[0,0.5],[1,0.5]];portConstraint=eastwest;rounded=1;" vertex="1" parent="orXaqV5CBYKXUnDwEfgx-30">
          <mxGeometry y="52" width="260" height="26" as="geometry" />
        </mxCell>
        <mxCell id="orXaqV5CBYKXUnDwEfgx-33" value="+ change pass option" style="text;html=1;strokeColor=none;fillColor=none;align=left;verticalAlign=top;spacingLeft=4;spacingRight=4;whiteSpace=wrap;overflow=hidden;rotatable=0;points=[[0,0.5],[1,0.5]];portConstraint=eastwest;rounded=1;" vertex="1" parent="orXaqV5CBYKXUnDwEfgx-30">
          <mxGeometry y="78" width="260" height="26" as="geometry" />
        </mxCell>
        <mxCell id="orXaqV5CBYKXUnDwEfgx-34" value="+&amp;nbsp;notification setting" style="text;html=1;strokeColor=none;fillColor=none;align=left;verticalAlign=top;spacingLeft=4;spacingRight=4;whiteSpace=wrap;overflow=hidden;rotatable=0;points=[[0,0.5],[1,0.5]];portConstraint=eastwest;rounded=1;" vertex="1" parent="orXaqV5CBYKXUnDwEfgx-30">
          <mxGeometry y="104" width="260" height="26" as="geometry" />
        </mxCell>
      </root>
    </mxGraphModel>
  </diagram>
</mxfile>
